<svg width="300" height="300" viewBox="0 0 300 300" fill="none" xmlns="http://www.w3.org/2000/svg">
<path d="M190.909 0H270.909C281.092 0 286.183 0 290.073 1.96976C293.494 3.70241 296.275 6.46712 298.018 9.86764C300 13.7335 300 18.7942 300 28.9157V36.1446H190.909V0Z" fill="#2D3983"/>
<path d="M0 133.735H109.091V169.88H0V133.735Z" fill="#2D3983"/>
<path d="M190.909 131.928H300V168.072H190.909V131.928Z" fill="#2D3983"/>
<path d="M30.9091 263.855H109.091V300H30.9091V263.855Z" fill="#2D3983"/>
<path d="M127.273 263.855H227.273V300H127.273V263.855Z" fill="#2D3983"/>
<path d="M127.273 1.80723H163.636V267.47H127.273V1.80723Z" fill="#2D3983"/>
<path d="M190.909 0H227.273V300H190.909V0Z" fill="#2D3983"/>
<path d="M0 30.7229C0 20.6015 0 15.5407 1.9817 11.6749C3.72485 8.27435 6.50632 5.50964 9.92745 3.77699C13.8168 1.80723 18.9081 1.80723 29.0909 1.80723H36.3636V300H29.0909C18.9081 300 13.8168 300 9.92745 298.03C6.50632 296.298 3.72485 293.533 1.9817 290.132C0 286.266 0 281.206 0 271.084V30.7229Z" fill="#2D3983"/>
<path d="M263.636 32.5301H300V135.542H263.636V32.5301Z" fill="#2D3983"/>
<path d="M72.7273 166.265H109.091V267.47H72.7273V166.265Z" fill="#2D3983"/>
</svg>
